Coordinates
version=1
nRows=9
nColumns=24
inDegrees=yes

Units are S.I. units (second, meters, Newtons, ...)
Angles are in degrees.

endheader
time	pelvis_tilt	pelvis_list	pelvis_rotation	pelvis_tx	pelvis_ty	pelvis_tz	hip_flexion_r	hip_adduction_r	hip_rotation_r	knee_angle_r	ankle_angle_r	subtalar_angle_r	mtp_angle_r	hip_flexion_l	hip_adduction_l	hip_rotation_l	knee_angle_l	ankle_angle_l	subtalar_angle_l	mtp_angle_l	lumbar_extension	lumbar_bending	lumbar_rotation
      6.72000000	      5.66901589	      6.61822514	     -2.69773817	      2.28603662	      1.06134103	     -0.28635134	     11.14850302	     -6.57536852	     -2.25131937	    -60.68540068	    -14.15829595	    -40.93990722	      0.00000000	      2.55993765	     10.15185523	     -2.29992658	    -11.23989327	      7.36393878	    -17.78698146	      0.00000000	    -17.94455342	     -9.75589756	     -4.82069189
      6.73000000	      5.50113963	      6.42064994	     -2.51484626	      2.29675907	      1.06217853	     -0.28723638	     12.45934370	     -6.16594816	     -2.10509338	    -60.16786233	    -11.67722552	    -39.00526792	      0.00000000	      1.78626864	     10.04733271	     -1.85670774	    -10.70502250	      7.55923261	    -17.94341558	      0.00000000	    -17.96629972	     -9.40061537	     -5.14573924
      6.74000000	      5.33570838	      6.26023792	     -2.30387652	      2.30748957	      1.06281004	     -0.28808053	     13.69737579	     -5.82216434	     -2.00983329	    -59.44695870	     -9.20724668	    -36.92737189	      0.00000000	      1.02046313	      9.97094769	     -1.39349309	    -10.19296595	      7.76866360	    -18.09261420	      0.00000000	    -17.99042307	     -9.08686953	     -5.49485826
      6.75000000	      5.17246888	      6.12969981	     -2.07422547	      2.31822916	      1.06324326	     -0.28887051	     14.85852715	     -5.53536066	     -1.95373074	    -58.52075600	     -6.85973108	    -34.84233994	      0.00000000	      0.26737199	      9.91455765	     -0.91274512	     -9.71264502	      7.99047468	    -18.24613836	      0.00000000	    -18.01523970	     -8.81194649	     -5.86387724
      6.76000000	      5.00937166	      6.01281493	     -1.80913232	      2.32897979	      1.06349922	     -0.28961817	     15.93098568	     -5.28953049	     -1.94875199	    -57.37804444	     -4.73468373	    -32.90168747	      0.00000000	     -0.47068709	      9.85905790	     -0.40456188	     -9.26901238	      8.20232808	    -18.38218591	      0.00000000	    -18.03902554	     -8.54645041	     -6.26605509
      6.77000000	      4.85673705	      5.91673009	     -1.55921006	      2.33972960	      1.06358184	     -0.29026365	     16.91371385	     -5.07764083	     -1.93855172	    -56.02955963	     -2.89240583	    -31.18925301	      0.00000000	     -1.20322784	      9.81519130	      0.10904890	     -8.85408343	      8.45059198	    -18.57637932	      0.00000000	    -18.06987172	     -8.32307314	     -6.66794365
      6.78000000	      4.71225030	      5.84281012	     -1.33368776	      2.35048708	      1.06349924	     -0.29081349	     17.80686932	     -4.89891513	     -1.91146766	    -54.47891825	     -1.35833042	    -29.74125592	      0.00000000	     -1.93432891	      9.78718517	      0.63501717	     -8.45409799	      8.70440427	    -18.85714980	      0.00000000	    -18.09783435	     -8.13559206	     -7.05497785
      6.79000000	      4.59314670	      5.77002489	     -1.07266365	      2.36126158	      1.06332259	     -0.29130072	     18.56533787	     -4.74760576	     -1.93676655	    -52.70669828	     -0.13718630	    -28.65420010	      0.00000000	     -2.69006669	      9.74349726	      1.16005617	     -8.06264478	      8.93008587	    -19.06735666	      0.00000000	    -18.15358874	     -7.95685297	     -7.50043561
      6.80000000	      4.48177073	      5.71545961	     -0.84100771	      2.37204545	      1.06300017	     -0.29167315	     19.23098488	     -4.61969269	     -1.93246233	    -50.74792763	      0.84316364	    -27.80139226	      0.00000000	     -3.45486104	      9.70981668	      1.68469596	     -7.66231575	      9.16146648	    -19.34584642	      0.00000000	    -18.20721532	     -7.81731300	     -7.92385267
